<svg width="2000" height="2000" viewBox="0 0 2000 2000" fill="none" xmlns="http://www.w3.org/2000/svg">
<g clip-path="url(#clip0)">
<rect width="2000" height="2000" fill="white"/>
<rect opacity="0.32" x="441.75" y="491.75" width="819.89" height="819.89" transform="rotate(-45 441.75 491.75)" fill="#4CAF50"/>
<rect opacity="0.4" x="-45.312" y="299.312" width="1314.95" height="1518.16" transform="rotate(-45 -45.312 299.312)" fill="#4CAF50"/>
<rect opacity="0.48" x="911" y="608.312" width="1058.27" height="1058.27" transform="rotate(-45 911 608.312)" fill="#4CAF50"/>
<rect opacity="0.48" x="-99" y="1975.31" width="1058.27" height="1058.27" transform="rotate(-45 -99 1975.31)" fill="#4CAF50"/>
<rect opacity="0.8" x="-466" y="1786.34" width="666.581" height="666.581" transform="rotate(-45 -466 1786.34)" fill="#4CAF50"/>
<rect opacity="0.72" x="-319" y="728.344" width="666.581" height="666.581" transform="rotate(-45 -319 728.344)" fill="#4CAF50"/>
<rect opacity="0.64" x="128" y="922.344" width="666.581" height="666.581" transform="rotate(-45 128 922.344)" fill="#4CAF50"/>
<rect opacity="0.56" x="-367" y="273.344" width="666.581" height="666.581" transform="rotate(-45 -367 273.344)" fill="#4CAF50"/>
<rect opacity="0.4" x="-185" y="1424.34" width="666.581" height="666.581" transform="rotate(-45 -185 1424.34)" fill="#4CAF50"/>
<rect opacity="0.32" x="966" y="77.344" width="666.581" height="666.581" transform="rotate(-45 966 77.344)" fill="#4CAF50"/>
<rect opacity="0.24" x="-186" y="1180.34" width="666.581" height="666.581" transform="rotate(-45 -186 1180.34)" fill="#4CAF50"/>
<rect opacity="0.16" x="-343" y="296.344" width="666.581" height="666.581" transform="rotate(-45 -343 296.344)" fill="#4CAF50"/>
<rect opacity="0.08" y="645.312" width="1058.27" height="1058.27" transform="rotate(-45 0 645.312)" fill="#4CAF50"/>
<rect opacity="0.64" x="128" y="1275.34" width="666.581" height="666.581" transform="rotate(-45 128 1275.34)" fill="#4CAF50"/>
<rect opacity="0.64" x="624" y="1088.34" width="666.581" height="666.581" transform="rotate(-45 624 1088.34)" fill="#4CAF50"/>
<rect opacity="0.72" x="870" y="1616.34" width="666.581" height="666.581" transform="rotate(-45 870 1616.34)" fill="#4CAF50"/>
<rect opacity="0.72" x="1072" y="1896.34" width="666.581" height="666.581" transform="rotate(-45 1072 1896.34)" fill="#4CAF50"/>
<rect opacity="0.56" x="517" y="1354.31" width="1058.27" height="1058.27" transform="rotate(-45 517 1354.31)" fill="#4CAF50"/>
<rect opacity="0.56" x="1305" y="1701.31" width="1058.27" height="1058.27" transform="rotate(-45 1305 1701.31)" fill="#4CAF50"/>
<rect opacity="0.56" x="1690" y="600.344" width="666.581" height="666.581" transform="rotate(-45 1690 600.344)" fill="#4CAF50"/>
<rect opacity="0.56" x="1586" y="89.3442" width="666.581" height="666.581" transform="rotate(-45 1586 89.3442)" fill="#4CAF50"/>
</g>
<defs>
<clipPath id="clip0">
<rect width="2000" height="2000" fill="white"/>
</clipPath>
</defs>
</svg>
