<?xml version="1.0" standalone="no"?>
<!DOCTYPE svg PUBLIC "-//W3C//DTD SVG 20010904//EN"
 "http://www.w3.org/TR/2001/REC-SVG-20010904/DTD/svg10.dtd">
<svg version="1.0" xmlns="http://www.w3.org/2000/svg"
 width="986.000000pt" height="986.000000pt" viewBox="0 0 986.000000 986.000000"
 preserveAspectRatio="xMidYMid meet">
<metadata>
Created by potrace 1.11, written by Peter Selinger 2001-2013
</metadata>
<g transform="translate(0.000000,986.000000) scale(0.100000,-0.100000)"
fill="#000000" stroke="none">
<path d="M4685 9844 c-16 -2 -79 -9 -140 -15 -908 -90 -1798 -593 -2361 -1334
-692 -910 -893 -2088 -542 -3175 322 -998 1109 -1818 2088 -2175 58 -22 106
-39 107 -40 1 -1 248 -696 548 -1545 300 -849 546 -1545 548 -1547 2 -2 248
689 547 1534 298 846 545 1544 547 1551 3 6 9 12 15 12 39 0 395 156 553 242
964 528 1617 1475 1769 2563 69 493 22 1049 -126 1515 -230 721 -677 1338
-1289 1777 -465 333 -1000 543 -1579 619 -118 15 -610 28 -685 18z m352 -2455
c449 -50 792 -349 916 -799 31 -115 31 -362 -2 -484 -82 -313 -276 -554 -556
-691 -129 -64 -219 -90 -360 -106 -184 -21 -368 13 -550 100 -278 133 -478
373 -561 672 -38 138 -44 327 -15 467 78 375 337 671 695 792 74 25 153 41
261 54 59 6 77 6 172 -5z"/>
</g>
</svg>
