<?xml version="1.0" standalone="no"?>
<!DOCTYPE svg PUBLIC "-//W3C//DTD SVG 20010904//EN"
 "http://www.w3.org/TR/2001/REC-SVG-20010904/DTD/svg10.dtd">
<svg version="1.0" xmlns="http://www.w3.org/2000/svg"
 width="700.000000pt" height="700.000000pt" viewBox="0 0 700.000000 700.000000"
 preserveAspectRatio="xMidYMid meet">
<metadata>
Created by potrace 1.11, written by Peter Selinger 2001-2013
</metadata>
<g transform="translate(0.000000,700.000000) scale(0.100000,-0.100000)"
fill="#000000" stroke="none">
<path d="M3458 6566 c-1 -2 -59 -6 -128 -10 -69 -3 -150 -10 -180 -16 -30 -5
-66 -11 -80 -14 -14 -2 -47 -10 -75 -16 -27 -6 -61 -14 -75 -16 -62 -12 -275
-91 -378 -140 -98 -47 -287 -156 -302 -174 -3 -3 -16 -13 -30 -22 -165 -104
-406 -358 -551 -578 -159 -241 -294 -601 -324 -860 -21 -180 -26 -362 -13
-505 13 -142 22 -195 54 -320 71 -284 182 -520 353 -755 64 -89 98 -128 201
-235 157 -162 325 -288 530 -397 99 -53 272 -128 294 -128 23 0 40 -33 84
-160 41 -120 183 -523 278 -790 93 -261 136 -383 206 -580 16 -47 41 -115 54
-152 62 -175 73 -205 81 -232 l9 -29 17 44 c25 66 105 294 132 374 12 39 28
81 34 95 5 14 51 142 101 285 50 143 102 289 115 325 13 36 34 94 45 130 12
36 28 79 35 95 7 17 29 80 50 140 20 61 51 151 69 200 18 50 45 124 60 166
l27 77 77 27 c375 135 760 432 999 770 83 118 233 389 233 423 0 4 6 18 13 32
27 52 103 312 112 387 2 12 6 34 9 50 30 148 36 473 11 628 -2 17 -7 48 -10
70 -11 72 -65 283 -96 372 -66 187 -189 415 -315 581 -156 204 -365 395 -581
530 -154 96 -454 226 -594 256 -213 47 -254 53 -409 61 -63 4 -120 8 -127 10
-6 2 -13 2 -15 1z m150 -1550 c106 -25 223 -88 300 -164 147 -144 205 -288
198 -497 -3 -90 -8 -124 -31 -185 -54 -146 -167 -281 -298 -354 -141 -79 -340
-101 -497 -55 -49 14 -172 76 -202 102 -14 12 -39 33 -55 47 -64 55 -139 167
-167 252 -80 235 -27 490 138 661 95 100 225 175 330 191 22 4 42 9 45 11 6 6
208 -1 239 -9z"/>
</g>
</svg>
