<svg width="34" height="35" viewBox="0 0 34 35" fill="none" xmlns="http://www.w3.org/2000/svg">
    <path fill-rule="evenodd" clip-rule="evenodd" d="M16.9833 0.833328C7.78325 0.833328 0.333252 8.3 0.333252 17.5C0.333252 26.7 7.78325 34.1667 16.9833 34.1667C26.1999 34.1667 33.6666 26.7 33.6666 17.5C33.6666 8.3 26.1999 0.833328 16.9833 0.833328ZM16.9999 30.8333C9.63325 30.8333 3.66659 24.8667 3.66659 17.5C3.66659 10.1333 9.63325 4.16666 16.9999 4.16666C24.3666 4.16666 30.3333 10.1333 30.3333 17.5C30.3333 24.8667 24.3666 30.8333 16.9999 30.8333ZM15.3333 9.16666H17.8333V17.9167L25.3333 22.3667L24.0833 24.4167L15.3333 19.1667V9.16666Z" fill="#747574"/>
</svg>
