<?xml version="1.0" encoding="UTF-8"?>
<svg width="24px" height="24px" viewBox="0 0 24 24" version="1.1" xmlns="http://www.w3.org/2000/svg" xmlns:xlink="http://www.w3.org/1999/xlink">
    <!-- Generator: Sketch 51.2 (57519) - http://www.bohemiancoding.com/sketch -->
    <title>bike-parking</title>
    <desc>Created with Sketch.</desc>
    <defs>
        <path d="M3.76923077,0 L0,0 L0,10 L2.15384615,10 L2.15384615,6.66666667 L3.76923077,6.66666667 C5.55153846,6.66666667 7,5.17222222 7,3.33333333 C7,1.49444444 5.55153846,0 3.76923077,0 Z M3.87692308,4.44444444 L2.15384615,4.44444444 L2.15384615,2.22222222 L3.87692308,2.22222222 C4.46923077,2.22222222 4.95384615,2.72222222 4.95384615,3.33333333 C4.95384615,3.94444444 4.46923077,4.44444444 3.87692308,4.44444444 Z" id="path-1"></path>
        <path d="M19.2190875,4.66670312 C18.6051,4.66436979 18.0179625,4.7744375 17.4777375,4.97641667 L14.5647375,0.413546875 C14.4005596,0.156393676 14.111349,-1.03009563e-05 13.8000375,-1.42e-14 L11.4000375,-1.42e-14 C11.06865,-1.42e-14 10.8000375,0.261151042 10.8000375,0.583333333 L10.8000375,1.16666667 C10.8000375,1.48884896 11.06865,1.75 11.4000375,1.75 L13.299375,1.75 L13.857975,2.625 L9.600075,2.625 L9.600075,2.04166667 C9.600075,1.71948437 9.3314625,1.45833333 9.000075,1.45833333 L5.7203625,1.45833333 C5.216325,1.45833333 4.791225,1.85933854 4.8002625,2.34926562 C4.8089625,2.82482812 5.2081125,3.20833333 5.700075,3.20833333 L7.5273,3.20833333 L6.4241625,4.94083333 C5.920425,4.76473958 5.3777625,4.66801562 4.8119625,4.66666667 C2.178525,4.66046875 0.01545,6.74522917 7.5e-05,9.30547917 C-0.0154875,11.8955885 2.1395625,14 4.800075,14 C7.03665,14 8.916,12.5127552 9.4488375,10.5 L11.400075,10.5 C11.7117516,10.4999992 12.0012412,10.3432207 12.1653,10.0855781 L15.388875,5.02286458 L15.94905,5.90030729 C14.9944875,6.75518229 14.3971125,7.98138542 14.4000375,9.34332292 C14.405475,11.8528594 16.57125,13.9753906 19.152375,13.9997448 C21.8001,14.0247187 23.9591625,11.9652604 23.9994375,9.40614062 C24.0401625,6.81975 21.8797125,4.67676562 19.2190875,4.66670312 Z M7.003125,7.35627083 C7.3678875,7.74014062 7.6283625,8.21891146 7.7397,8.75 L6.115725,8.75 L7.003125,7.35627083 Z M4.800075,12.25 C3.145875,12.25 1.800075,10.9415833 1.800075,9.33333333 C1.800075,7.72508333 3.145875,6.41666667 4.800075,6.41666667 C5.0201625,6.41666667 5.23455,6.44047396 5.4412875,6.48444271 L3.73485,9.16445833 C3.3643125,9.74629687 3.7954875,10.5 4.500075,10.5 L7.548825,10.5 C7.08495,11.5290365 6.02775,12.25 4.800075,12.25 Z M10.8987,8.75 L9.5628,8.75 C9.4143,7.59222917 8.82945,6.56636458 7.9734375,5.83238542 L8.9014125,4.375 L13.684425,4.375 L10.8987,8.75 Z M19.0383375,12.2458437 C17.4994875,12.1669115 16.2615,10.9445729 16.202325,9.44748437 C16.171875,8.67744792 16.4510625,7.97026562 16.9273875,7.4326875 L18.593625,10.0425937 C18.768375,10.3163229 19.138275,10.4004687 19.419825,10.2305729 L19.9296,9.92297396 C20.21115,9.75307812 20.2977375,9.39345312 20.12295,9.11972396 L18.4554,6.50773958 C18.6987192,6.44716926 18.9489065,6.41658388 19.200075,6.41670312 C20.854275,6.41670312 22.200075,7.72511979 22.200075,9.33336979 C22.2000375,10.9936823 20.765625,12.334474 19.0383375,12.2458437 Z" id="path-3"></path>
    </defs>
    <g id="bike-parking" stroke="none" stroke-width="1" fill="none" fill-rule="evenodd">
        <g id="Group">
            <g id="pictogram/P" transform="translate(9.428571, 14.068966)">
                <mask id="mask-2" fill="white">
                    <use xlink:href="#path-1"></use>
                </mask>
                <use id="Mask" fill="#000000" fill-rule="nonzero" xlink:href="#path-1"></use>
                <g id="black" mask="url(#mask-2)" fill="#333333" fill-rule="evenodd">
                    <g transform="translate(-5.687500, -4.090909)" id="Rectangle">
                        <rect x="0" y="0" width="18" height="18"></rect>
                    </g>
                </g>
            </g>
            <g id="pictogram/bike">
                <mask id="mask-4" fill="white">
                    <use xlink:href="#path-3"></use>
                </mask>
                <use id="Mask" fill="#000000" fill-rule="nonzero" xlink:href="#path-3"></use>
                <g id="black" mask="url(#mask-4)" fill="#333333" fill-rule="evenodd">
                    <g transform="translate(-22.285714, -26.666667)" id="Rectangle">
                        <rect x="0" y="0" width="69" height="67"></rect>
                    </g>
                </g>
            </g>
        </g>
    </g>
</svg>