<?xml version="1.0" encoding="UTF-8"?>
<svg width="24px" height="24px" viewBox="0 0 24 24" version="1.1" xmlns="http://www.w3.org/2000/svg" xmlns:xlink="http://www.w3.org/1999/xlink">
    <!-- Generator: Sketch 51.2 (57519) - http://www.bohemiancoding.com/sketch -->
    <title>bus-stop</title>
    <desc>Created with Sketch.</desc>
    <defs>
        <path d="M17.4850299,11.2275449 L17.4850299,4.97005988 L2.51497006,4.97005988 L2.51497006,11.2275449 L17.4850299,11.2275449 Z M15.6287425,18.7125749 C16.1477072,18.7125749 16.5868246,18.5329359 16.9461078,18.1736527 C17.305391,17.8143695 17.4850299,17.3652722 17.4850299,16.8263473 C17.4850299,16.2874225 17.305391,15.8433151 16.9461078,15.494012 C16.5868246,15.1447088 16.1477072,14.9700599 15.6287425,14.9700599 C15.1097778,14.9700599 14.6656705,15.1496988 14.2964072,15.508982 C13.9271439,15.8682653 13.742515,16.3073826 13.742515,16.8263473 C13.742515,17.345312 13.9221539,17.7894193 14.2814371,18.1586826 C14.6407204,18.527946 15.0898177,18.7125749 15.6287425,18.7125749 Z M4.4011976,18.7125749 C4.92016228,18.7125749 5.35927964,18.5329359 5.71856287,18.1736527 C6.07784611,17.8143695 6.25748503,17.3652722 6.25748503,16.8263473 C6.25748503,16.2874225 6.07784611,15.8433151 5.71856287,15.494012 C5.35927964,15.1447088 4.92016228,14.9700599 4.4011976,14.9700599 C3.88223293,14.9700599 3.4381256,15.1496988 3.06886228,15.508982 C2.69959895,15.8682653 2.51497006,16.3073826 2.51497006,16.8263473 C2.51497006,17.345312 2.69460898,17.7894193 3.05389222,18.1586826 C3.41317545,18.527946 3.86227275,18.7125749 4.4011976,18.7125749 Z M0,17.4251497 L0,4.97005988 C0,3.57284731 0.459077246,2.49501377 1.37724551,1.73652695 C2.17565269,1.05788084 3.37324551,0.578843713 4.97005988,0.299401198 C6.20759102,0.0997994012 7.88422096,0 10,0 C12.115779,0 13.792409,0.0997994012 15.0299401,0.299401198 C16.6267545,0.578843713 17.8243473,1.05788084 18.6227545,1.73652695 C19.5409228,2.49501377 20,3.57284731 20,4.97005988 L20,17.4251497 C20,17.9640746 19.8802407,18.4830314 19.6407186,18.9820359 C19.4211566,19.4411201 19.1117784,19.8602775 18.7125749,20.239521 L18.7125749,22.4550898 C18.7125749,22.7944129 18.5928156,23.0838311 18.3532934,23.3233533 C18.1137713,23.5628754 17.824353,23.6826347 17.4850299,23.6826347 L16.257485,23.6826347 C15.918162,23.6826347 15.6187638,23.5628754 15.3592814,23.3233533 C15.0997991,23.0838311 14.9700599,22.7944129 14.9700599,22.4550898 L14.9700599,21.1676647 L5.02994012,21.1676647 L5.02994012,22.4550898 C5.02994012,22.7944129 4.90519087,23.0838311 4.65568862,23.3233533 C4.40618638,23.5628754 4.1017982,23.6826347 3.74251497,23.6826347 L2.51497006,23.6826347 C2.17564701,23.6826347 1.88622874,23.5628754 1.64670659,23.3233533 C1.40718443,23.0838311 1.28742515,22.7944129 1.28742515,22.4550898 L1.28742515,20.239521 C0.888221557,19.8602775 0.578843413,19.4411201 0.359281437,18.9820359 C0.119759281,18.4830314 0,17.9640746 0,17.4251497 Z" id="path-1"></path>
    </defs>
    <g id="bus-stop" stroke="none" stroke-width="1" fill="none" fill-rule="evenodd">
        <g id="pictogram/bus" transform="translate(2.000000, 0.000000)">
            <mask id="mask-2" fill="white">
                <use xlink:href="#path-1"></use>
            </mask>
            <use id="Mask" fill="#000000" fill-rule="evenodd" xlink:href="#path-1"></use>
            <g id="black" mask="url(#mask-2)" fill="#333333" fill-rule="evenodd">
                <g transform="translate(-10.000000, -8.000000)" id="Rectangle">
                    <rect x="0" y="0" width="40" height="40"></rect>
                </g>
            </g>
        </g>
    </g>
</svg>