<?xml version="1.0" encoding="UTF-8"?>
<svg width="24px" height="24px" viewBox="0 0 24 24" version="1.1" xmlns="http://www.w3.org/2000/svg" xmlns:xlink="http://www.w3.org/1999/xlink">
    <!-- Generator: Sketch 51.2 (57519) - http://www.bohemiancoding.com/sketch -->
    <title>escalator</title>
    <desc>Created with Sketch.</desc>
    <defs>
        <path d="M4.3106862,7.2040517 C4.31318348,7.2040517 5.63487347,7.2040517 6.95906075,7.2040517 C7.13424754,7.2040517 7.26737488,7.14042273 7.3152168,7.11635307 C7.36305873,7.09228342 7.42262138,7.03164714 7.54850895,6.96464938 C11.365725,3.07546534 13.2743331,1.13087332 13.2743331,1.13087332 C13.5361741,0.901154455 13.8703379,0.690513539 14.2768246,0.498950573 C14.7285598,0.286063564 14.9317577,0.217858744 15.4631638,0.0760674586 C15.5603694,0.0501307925 15.9929003,0.0356098672 16.2649908,0 C16.2649908,0 19.7104836,0 19.7104836,0 C20.6039728,0 24,0.834152453 24,4.48162068 C24,8.1290889 20.4621593,8.79918195 19.7104836,8.79918195 C19.7104836,8.79918195 18.8508857,8.79918195 17.13169,8.79918195 L11.1542177,14.9427901 C10.7850088,15.1788678 10.4702333,15.3705167 10.2098914,15.5177369 C9.8193784,15.7385671 8.80003694,16 8.56874947,16 C8.42521969,16 4.43375584,16 4.43375584,16 C3.9346119,16 0,15.5647303 0,11.6042264 C3.63766383e-16,7.64372252 3.90478312,7.2040517 4.3106862,7.2040517 Z M4.6416473,9.71446468 C4.23574421,9.71446468 2.66517193,10.0181391 2.66517193,11.5936145 C2.66517193,13.1690899 4.14500064,13.4971645 4.64414458,13.4971645 C4.64414458,13.4971645 8.12529129,13.5147113 8.26882107,13.5147113 C8.50010854,13.5147113 8.837635,13.3773503 9.05383978,13.2530476 C9.19797629,13.1701792 9.31538014,13.081555 9.40605133,12.9871752 L15.3246876,6.94263957 C15.6088642,6.74859776 15.8229563,6.62065009 15.9669637,6.55879656 C16.110971,6.49694304 16.3638705,6.42431023 16.7256619,6.34089814 L19.5179472,6.34089814 C20.7342926,6.13851822 21.3424653,5.50655847 21.3424653,4.4450189 C21.3424653,3.38347932 20.7342926,2.74691431 19.5179472,2.53532385 L16.7256619,2.46122033 C16.3037769,2.47783823 16.0058218,2.51313891 15.8317966,2.56712238 C15.6577714,2.62110584 15.4254887,2.75028751 15.1349485,2.95466737 L9.38680599,8.79918195 C9.02544089,9.06343477 8.68438425,9.26375955 8.36363606,9.4001563 C8.04288787,9.53655304 7.58235366,9.6413225 6.98203344,9.71446468 C5.42344087,9.71446468 4.64331215,9.71446468 4.6416473,9.71446468 Z" id="path-1"></path>
    </defs>
    <g id="escalator" stroke="none" stroke-width="1" fill="none" fill-rule="evenodd">
        <g id="pictogram/escalator" transform="translate(0.000000, 4.000000)">
            <mask id="mask-2" fill="white">
                <use xlink:href="#path-1"></use>
            </mask>
            <use id="Mask" fill="#FF0000" fill-rule="evenodd" xlink:href="#path-1"></use>
            <g id="black" mask="url(#mask-2)" fill="#333333" fill-rule="evenodd">
                <g transform="translate(-6.000000, -10.000000)" id="Rectangle">
                    <rect x="0" y="0" width="40" height="40"></rect>
                </g>
            </g>
        </g>
    </g>
</svg>